<?xml version="1.0" standalone="no"?>
<!DOCTYPE svg PUBLIC "-//W3C//DTD SVG 20010904//EN"
 "http://www.w3.org/TR/2001/REC-SVG-20010904/DTD/svg10.dtd">
<svg version="1.0" xmlns="http://www.w3.org/2000/svg"
 width="1280.000000pt" height="681.000000pt" viewBox="0 0 1280.000000 681.000000"
 preserveAspectRatio="xMidYMid meet">
<metadata>
Created by potrace 1.15, written by Peter Selinger 2001-2017
</metadata>
<g transform="translate(0.000000,681.000000) scale(0.100000,-0.100000)"
fill="#000000" stroke="none">
<path d="M6170 6804 c-622 -21 -1078 -59 -1450 -119 -639 -104 -1075 -335
-1545 -816 -214 -219 -451 -515 -705 -881 l-74 -106 -51 -7 c-87 -11 -314 -54
-476 -90 -675 -151 -1182 -362 -1453 -608 -177 -160 -229 -325 -231 -739 l-1
-226 -93 -122 -94 -122 7 -132 c32 -624 126 -1136 251 -1374 48 -92 114 -165
178 -197 l53 -25 3184 -3 3185 -2 58 28 c99 49 139 116 237 401 33 98 74 205
91 237 53 106 115 267 213 557 146 428 201 539 368 737 164 195 310 282 424
254 83 -21 165 -115 223 -256 50 -121 104 -338 136 -541 l7 -43 -91 69 c-208
158 -513 276 -741 287 l-85 5 50 -16 c424 -128 615 -227 803 -416 162 -164
250 -324 303 -558 81 -351 -29 -1066 -224 -1455 -84 -169 -216 -323 -323 -375
l-49 -25 -435 4 -435 3 -135 65 c-126 61 -141 71 -220 152 -138 140 -186 242
-272 581 -27 107 -54 203 -60 213 -18 35 -31 1 -36 -97 -8 -166 32 -386 97
-529 67 -150 187 -279 318 -344 40 -20 73 -38 73 -39 0 -2 -84 -1 -187 2
l-188 7 -90 44 c-132 66 -224 134 -323 237 -161 170 -246 362 -288 659 -10 69
-22 123 -26 121 -14 -9 -9 -217 7 -310 29 -172 94 -331 187 -456 99 -134 273
-276 445 -362 l73 -36 512 -15 c282 -8 626 -16 763 -17 l250 -3 80 39 c95 46
213 159 289 276 178 271 298 702 335 1200 31 410 -79 769 -311 1016 l-48 51
-16 124 c-40 327 -121 574 -226 694 -135 153 -318 118 -538 -104 -197 -199
-302 -384 -440 -776 -124 -352 -158 -440 -222 -575 -33 -69 -82 -190 -110
-270 -87 -250 -125 -317 -203 -351 -38 -16 -106 -17 -1200 -8 -638 4 -2060 13
-3159 19 -1593 9 -2006 14 -2030 24 -180 75 -327 665 -362 1446 l-6 145 68 88
68 88 55 -54 c79 -77 207 -169 302 -216 89 -45 107 -49 115 -26 18 46 -204
248 -367 334 l-46 25 -7 80 c-20 258 12 544 76 676 31 63 145 174 258 249 335
223 919 416 1640 541 139 24 167 31 179 50 94 142 438 582 617 790 410 476
803 750 1277 894 325 99 844 163 1580 196 290 13 1418 13 1767 0 762 -28 1614
-83 2035 -130 675 -77 1223 -213 1587 -395 141 -70 188 -103 280 -196 373
-380 699 -1349 918 -2724 l42 -260 70 -66 71 -67 -7 -48 c-4 -27 -30 -141 -58
-254 -41 -165 -57 -215 -84 -257 -19 -28 -44 -78 -57 -110 l-22 -58 -6 180
c-15 393 -68 572 -210 699 -91 82 -244 116 -361 82 -231 -67 -440 -434 -591
-1041 -25 -99 -57 -243 -71 -320 -25 -137 -25 -145 -16 -359 6 -121 9 -221 6
-223 -5 -5 -187 -11 -736 -23 -668 -15 -1405 -40 -1480 -50 -82 -11 546 -5
1425 15 633 14 814 20 821 28 2 2 8 111 14 243 8 201 15 263 40 389 48 237
140 577 116 430 -36 -226 -40 -299 -41 -650 0 -303 3 -375 18 -455 41 -221
147 -461 305 -695 56 -82 113 -163 127 -180 24 -28 25 -28 19 -6 -3 13 -45 94
-93 180 -149 269 -234 479 -265 661 -45 264 -22 820 50 1167 68 332 184 513
328 513 176 -1 294 -201 366 -624 42 -245 76 -727 66 -926 -23 -443 -119 -856
-225 -969 -28 -29 -33 -31 -108 -31 -43 -1 -231 -7 -418 -14 -339 -14 -340
-14 -378 7 -106 59 -221 303 -337 712 -38 136 -60 193 -60 156 0 -43 35 -239
65 -358 62 -253 136 -428 223 -524 83 -93 61 -89 544 -89 260 0 437 4 460 10
105 29 191 175 258 437 67 257 102 549 99 828 l-1 190 50 205 c27 113 59 246
71 295 20 86 77 223 106 255 12 14 68 207 125 430 37 145 10 239 -87 300 l-40
25 -12 105 c-29 254 -106 685 -192 1068 -232 1037 -556 1743 -907 1976 -206
136 -513 256 -884 345 -532 128 -910 176 -1953 246 -549 37 -1115 55 -1790 59
-357 2 -693 2 -745 0z m5952 -3832 c181 -80 258 -309 258 -771 0 -85 -2 -152
-4 -150 -3 2 -16 60 -30 129 -53 262 -122 418 -230 525 -90 89 -141 110 -254
103 -82 -5 -120 -20 -187 -72 -21 -17 -35 -24 -30 -16 81 138 187 239 285 271
40 13 142 3 192 -19z m328 -1137 l-19 -150 4 140 c2 77 9 163 17 190 l13 50 2
-40 c2 -22 -6 -107 -17 -190z"/>
<path d="M9466 6383 c-249 -53 -461 -238 -597 -521 -108 -225 -194 -607 -200
-887 -2 -70 3 -95 41 -205 23 -69 48 -136 56 -150 13 -25 13 -25 14 12 0 20
-12 94 -26 164 l-26 127 22 131 c76 474 207 808 394 1004 165 175 367 242 619
209 59 -8 110 -17 113 -19 2 -3 9 -54 14 -114 9 -96 22 -142 105 -394 102
-309 164 -512 218 -715 32 -118 88 -346 91 -369 0 -5 -96 -19 -214 -31 -294
-30 -1000 -119 -973 -123 12 -2 104 6 205 17 456 51 978 95 990 83 10 -11 64
-297 92 -492 103 -711 92 -1401 -30 -2069 -14 -73 -23 -135 -21 -138 6 -5 72
336 91 472 93 635 93 1266 1 1920 -14 94 -31 203 -38 242 l-14 73 36 7 c20 4
260 7 534 8 477 0 499 -1 512 -19 36 -49 272 -821 263 -860 -2 -7 -23 -29 -48
-48 -129 -97 -273 -375 -385 -743 -121 -397 -255 -1069 -255 -1275 0 -120 25
-48 165 495 163 629 259 932 370 1164 53 110 122 217 163 254 20 18 20 18 26
0 4 -16 30 -182 39 -258 2 -18 5 -10 5 20 1 28 -5 99 -13 160 -16 120 -16 120
42 131 48 9 97 -12 157 -67 96 -87 175 -208 311 -468 44 -85 85 -156 91 -158
32 -11 -39 212 -121 384 -74 155 -147 265 -221 332 -78 71 -114 86 -212 86
-75 0 -83 2 -87 20 -56 262 -118 498 -189 720 -19 60 -33 111 -30 114 2 3 66
-1 141 -7 114 -10 140 -10 151 2 14 14 4 103 -93 880 l-23 188 -38 39 c-21 22
-41 39 -44 39 -4 0 -19 -22 -34 -49 l-27 -50 93 -485 c50 -267 90 -487 87
-490 -2 -2 -58 -1 -124 2 l-119 7 -29 80 c-185 510 -444 1128 -508 1208 -17
21 -29 40 -27 42 2 3 98 -34 214 -81 302 -124 415 -166 422 -159 4 4 0 11 -8
16 -193 122 -506 282 -711 363 -195 77 -480 143 -924 212 -243 37 -366 42
-479 17z m651 -168 c334 -52 511 -88 665 -136 108 -33 98 -21 126 -144 6 -22
44 -111 86 -198 146 -301 309 -673 414 -943 l39 -101 -361 -7 c-198 -4 -435
-13 -526 -20 -91 -7 -168 -10 -171 -7 -4 3 -12 35 -18 71 -52 279 -178 769
-316 1227 -20 64 -50 138 -73 175 -65 106 -66 108 -43 108 10 0 90 -11 178
-25z"/>
<path d="M7690 6383 c-1589 -13 -3212 -45 -3459 -69 -51 -5 -60 -9 -46 -17 41
-23 1953 2 3760 48 319 8 628 15 687 15 l107 0 -55 -82 c-67 -99 -179 -326
-227 -458 -57 -154 -112 -429 -156 -779 -11 -84 -21 -155 -24 -157 -2 -2 -66
3 -143 11 -1346 141 -3091 118 -4994 -66 -678 -65 -641 -85 85 -44 1706 96
2198 115 3035 115 757 0 1261 -19 1844 -71 126 -11 230 -18 231 -17 1 2 19 89
40 193 56 289 220 919 282 1084 27 76 83 199 131 294 3 6 -329 6 -1098 0z"/>
<path d="M8025 4803 c-270 -61 -356 -84 -493 -128 -359 -119 -578 -264 -686
-458 -45 -81 -46 -97 -2 -31 49 72 171 182 258 232 195 111 493 200 893 267
79 14 109 24 142 48 24 17 43 34 43 38 0 10 -89 39 -114 38 -12 -1 -30 -3 -41
-6z"/>
<path d="M8680 4554 c0 -45 9 -124 20 -178 22 -105 53 -297 69 -436 23 -189
32 -346 46 -804 8 -263 17 -481 20 -484 9 -10 5 979 -5 1148 -21 338 -72 669
-119 770 l-30 65 -1 -81z"/>
<path d="M9048 4493 c6 -2 18 -2 25 0 6 3 1 5 -13 5 -14 0 -19 -2 -12 -5z"/>
<path d="M7884 4216 c-230 -72 -455 -342 -613 -736 -31 -78 -57 -128 -68 -132
-10 -4 -155 -35 -323 -68 -658 -133 -1307 -278 -1500 -336 -347 -105 268 -7
1445 229 436 88 460 94 472 117 7 14 39 81 72 150 108 228 258 452 369 549 31
28 86 65 121 83 59 30 73 33 155 33 80 0 98 -3 150 -29 110 -54 242 -200 339
-376 122 -221 226 -579 256 -885 23 -230 22 -223 33 -195 6 14 13 88 15 165 7
177 -14 354 -67 560 -116 459 -335 777 -594 867 -61 21 -201 23 -262 4z"/>
<path d="M11428 4210 c-47 -9 -90 -37 -86 -57 2 -9 16 -25 31 -37 41 -30 163
-30 204 0 15 12 28 29 28 40 0 38 -100 69 -177 54z"/>
<path d="M10152 4105 c-58 -18 -92 -42 -92 -65 0 -81 322 -50 338 33 8 42
-150 62 -246 32z"/>
<path d="M6955 4023 c-295 -16 -2045 -226 -2045 -245 0 -11 205 -419 222 -441
13 -17 32 -16 434 15 l421 32 229 -44 228 -44 266 53 c146 29 286 57 311 62
l46 10 7 52 c50 405 58 533 35 548 -14 8 -30 9 -154 2z m151 -35 c-13 -46 -46
-233 -66 -375 -11 -81 -22 -148 -23 -148 -1 -1 -129 -16 -285 -34 l-283 -32
-230 51 -230 52 -382 -42 c-210 -23 -390 -43 -399 -46 -14 -4 -43 33 -128 162
-61 92 -107 170 -103 174 4 4 91 15 193 24 752 69 1718 182 1870 220 75 19 73
19 66 -6z"/>
<path d="M540 3990 c0 -23 152 -94 409 -191 85 -32 156 -61 158 -63 3 -2 -24
-44 -59 -93 -35 -48 -83 -115 -105 -149 l-42 -61 -169 5 -170 5 -86 -56 c-47
-31 -86 -63 -86 -72 0 -18 20 -15 124 23 l70 24 179 -12 c152 -11 181 -11 188
1 5 8 61 103 124 212 l114 197 -37 19 c-71 36 -378 163 -463 192 -87 29 -149
37 -149 19z"/>
<path d="M2590 3924 c-340 -8 -930 -40 -1106 -59 l-51 -6 -58 -132 c-257 -585
-410 -1198 -418 -1674 l-2 -133 -60 0 c-109 0 -509 -20 -540 -27 l-30 -6 28
-8 c16 -4 133 -13 260 -19 1014 -47 5177 -54 6172 -9 374 16 377 31 9 48 -308
15 -1060 31 -1420 31 -155 0 -302 3 -327 6 l-45 6 -12 67 c-59 340 -142 721
-192 881 -109 346 -408 971 -471 984 -25 5 -298 22 -602 36 -221 10 -924 19
-1135 14z m830 -94 c294 -11 752 -38 825 -48 l49 -7 73 -140 c112 -216 196
-423 304 -750 115 -347 170 -531 233 -772 l44 -173 -1461 -1 c-804 0 -1698 -4
-1987 -8 -289 -5 -527 -7 -529 -5 -7 6 38 348 65 494 33 181 104 468 154 615
22 66 38 110 36 97 -2 -12 -23 -121 -47 -241 -23 -120 -39 -226 -35 -236 7
-20 -62 -20 1266 5 272 5 788 14 1145 20 358 6 670 12 695 14 25 1 -649 3
-1498 4 -1230 2 -1543 5 -1539 15 2 6 35 114 73 239 l69 228 1513 0 1513 0 49
46 c28 26 50 50 50 54 0 4 -22 26 -49 48 l-50 42 -1523 -30 c-838 -16 -1535
-31 -1550 -33 -16 -2 -28 -2 -28 0 0 9 109 275 151 370 l51 112 41 5 c58 8
382 26 617 35 293 12 992 12 1280 1z"/>
<path d="M11822 3275 c0 -16 2 -22 5 -12 2 9 2 23 0 30 -3 6 -5 -1 -5 -18z"/>
<path d="M6033 2691 c-59 -15 -138 -67 -175 -117 -53 -68 -72 -131 -66 -214 9
-121 75 -216 187 -269 81 -38 193 -37 272 2 67 32 132 99 162 165 30 66 29
178 -2 248 -28 64 -101 136 -166 165 -54 24 -158 34 -212 20z"/>
<path d="M345 2655 c-57 -20 -130 -102 -150 -167 -33 -113 -11 -236 58 -314
45 -51 78 -71 134 -80 86 -13 180 43 231 140 24 45 27 62 27 146 0 84 -3 101
-27 146 -46 88 -128 145 -208 144 -14 -1 -43 -7 -65 -15z"/>
<path d="M7926 2498 c-7 -18 -57 -159 -111 -313 -86 -247 -112 -305 -135 -305
-3 0 -36 125 -74 278 -76 307 -81 321 -101 301 -17 -17 -175 -397 -175 -421 0
-9 32 -85 70 -168 l71 -150 -18 -30 c-9 -17 -21 -30 -25 -30 -4 0 -52 27 -105
60 -77 47 -100 57 -109 47 -16 -16 -127 -397 -119 -405 4 -4 73 -9 153 -12
127 -4 147 -7 150 -22 2 -11 -66 -84 -192 -209 -108 -105 -196 -196 -196 -201
0 -14 230 -338 240 -338 13 0 22 14 170 265 78 132 144 242 146 244 3 3 15 -6
28 -20 22 -23 24 -37 45 -369 12 -189 26 -349 31 -354 9 -9 317 50 333 64 4 4
-23 157 -62 341 -64 306 -68 334 -53 346 10 7 22 13 28 13 5 0 107 -101 225
-225 117 -123 221 -225 229 -225 9 0 52 71 114 187 94 177 98 187 80 200 -10
8 -130 80 -266 161 -214 127 -247 150 -242 167 3 11 11 25 18 31 6 6 128 37
271 68 143 31 264 61 269 66 6 6 -5 81 -29 197 -41 204 -49 233 -65 233 -6 0
-128 -50 -270 -112 -143 -61 -262 -109 -266 -106 -3 4 65 144 151 313 108 210
154 310 147 317 -12 12 -318 148 -333 148 -6 0 -16 -15 -23 -32z m161 -69 c65
-28 126 -55 135 -60 16 -8 -1 -45 -139 -316 -118 -231 -154 -310 -146 -321 25
-41 34 -39 302 77 144 63 263 112 265 110 9 -11 73 -345 68 -350 -4 -4 -117
-30 -252 -59 -135 -29 -254 -56 -266 -60 -19 -8 -44 -65 -44 -103 0 -9 98 -74
255 -167 141 -84 257 -155 259 -159 2 -3 -33 -75 -78 -159 l-81 -152 -55 57
c-30 32 -128 134 -218 228 l-163 169 -46 -24 c-25 -13 -47 -29 -50 -36 -2 -7
25 -157 62 -335 47 -224 64 -324 56 -328 -17 -11 -241 -55 -247 -49 -3 3 -15
158 -27 343 l-22 337 -40 34 c-22 19 -47 34 -55 34 -9 0 -72 -98 -159 -245
-79 -135 -146 -245 -150 -245 -4 0 -50 59 -101 131 l-93 131 192 191 c186 188
191 193 191 234 0 28 -5 43 -16 47 -9 3 -76 6 -150 6 -124 0 -135 1 -130 18 3
9 24 82 47 162 23 80 43 147 45 149 2 2 46 -21 97 -53 51 -31 100 -56 108 -56
15 0 69 88 69 113 0 8 -32 81 -71 163 l-71 149 68 168 c38 92 71 162 75 155 3
-7 34 -127 69 -266 35 -140 68 -256 75 -258 7 -3 30 3 51 13 39 18 39 19 111
223 129 366 145 410 149 410 2 0 56 -23 121 -51z"/>
<path d="M11788 2277 l-78 -73 0 -227 c0 -125 -3 -227 -6 -227 -4 0 -24 19
-45 43 -28 30 -41 39 -47 29 -5 -7 -18 -80 -31 -163 l-22 -151 70 -72 70 -73
-6 -59 c-4 -45 -20 -88 -66 -179 l-59 -119 28 -158 c19 -110 32 -158 41 -158
7 0 13 4 13 9 0 5 24 69 52 143 l53 133 6 -100 c4 -55 10 -166 14 -246 l7
-147 67 -26 c36 -14 72 -26 79 -26 15 0 15 8 -8 300 -10 134 -18 246 -16 248
2 1 50 -83 106 -188 56 -104 105 -190 109 -190 4 0 31 74 60 165 l54 166 -49
62 c-27 34 -86 109 -131 167 -46 57 -83 107 -83 110 0 4 50 14 112 23 61 9
114 19 117 22 5 6 29 275 30 343 1 17 -3 32 -9 32 -5 0 -68 -22 -140 -48 -71
-27 -130 -46 -130 -42 0 4 39 92 86 196 48 104 94 207 104 230 l18 41 -72 124
c-39 68 -75 123 -80 122 -5 -1 -39 -97 -74 -213 -36 -115 -67 -208 -70 -206
-4 5 15 344 24 414 4 31 2 42 -8 42 -7 -1 -48 -34 -90 -73z m57 -254 c-16
-236 -15 -286 3 -256 4 6 41 122 82 257 41 135 78 246 81 246 8 0 119 -194
119 -207 0 -5 -49 -117 -109 -249 -60 -131 -106 -242 -102 -246 3 -4 69 17
146 46 77 30 141 53 142 52 5 -5 -23 -325 -29 -331 -4 -4 -59 -15 -122 -24
-64 -9 -118 -20 -122 -23 -3 -4 45 -71 108 -150 62 -79 126 -159 141 -179 l27
-35 -46 -138 c-26 -76 -50 -134 -54 -129 -5 4 -52 89 -106 188 -53 99 -103
187 -111 195 -18 20 -17 -8 7 -320 11 -140 20 -258 20 -262 0 -4 -26 4 -57 17
-68 27 -59 -12 -76 330 -7 137 -16 230 -22 230 -5 0 -35 -64 -65 -142 -30 -79
-57 -143 -60 -143 -3 0 -15 56 -28 125 l-22 125 59 118 c47 94 60 130 66 185
l7 69 -71 70 -71 71 21 136 c12 75 23 138 26 141 3 3 23 -16 45 -42 22 -27 44
-48 49 -48 5 0 9 108 9 248 l0 247 62 56 c44 40 64 52 66 42 2 -8 -4 -129 -13
-270z"/>
<path d="M9360 1660 c-91 -4 -182 -11 -203 -15 -239 -47 574 -115 1384 -115
361 0 574 11 593 30 39 39 -416 81 -1084 100 -371 11 -436 11 -690 0z"/>
<path d="M173 1440 c15 -387 137 -824 297 -1060 90 -133 194 -220 317 -266 73
-28 139 -34 603 -53 644 -28 940 -34 994 -22 110 25 245 142 353 308 64 98
166 308 216 443 36 99 70 230 59 230 -4 0 -54 -92 -111 -204 -175 -345 -305
-530 -431 -614 -95 -64 -103 -65 -422 -48 -267 14 -488 25 -968 46 -271 11
-323 31 -452 169 -172 184 -292 490 -404 1034 -20 95 -40 177 -46 182 -7 7 -9
-37 -5 -145z"/>
<path d="M957 1182 c57 -88 119 -171 127 -172 5 0 28 15 51 34 l42 35 46 -47
c26 -26 47 -52 47 -58 0 -6 -11 -38 -25 -72 -14 -34 -25 -68 -25 -75 0 -17
250 -238 261 -232 4 3 22 52 40 110 17 57 38 106 45 109 7 3 46 8 86 12 l73 6
43 -88 c75 -152 47 -147 229 -42 87 50 169 97 182 106 l25 15 -55 48 -54 48
30 1 c59 2 284 26 288 30 11 14 127 241 127 250 0 7 -270 10 -801 10 l-801 0
19 -28z m1553 3 c0 -9 -88 -179 -103 -200 -13 -17 -37 -22 -178 -35 -89 -8
-164 -19 -165 -25 -2 -5 19 -28 46 -50 28 -22 48 -44 47 -49 -3 -9 -308 -189
-312 -184 -2 2 -24 46 -50 98 -26 52 -51 100 -56 106 -9 11 -148 0 -185 -15
-14 -6 -27 -30 -42 -85 -42 -145 -27 -141 -145 -35 -56 50 -108 97 -115 104
-11 10 -7 26 18 90 l31 78 -58 59 c-31 32 -62 58 -68 58 -5 -1 -28 -16 -49
-34 l-40 -34 -39 56 c-21 30 -46 66 -54 79 l-15 23 766 0 c421 0 766 -2 766
-5z"/>
</g>
</svg>
